<svg xmlns="http://www.w3.org/2000/svg" width="1290" height="2796" viewBox="0 0 1290 2796">
  <defs>
    <linearGradient id="bg" x1="0" y1="0" x2="1" y2="1">
      <stop offset="0" stop-color="#00FF7B" stop-opacity="0.12"/>
      <stop offset="1" stop-color="#D0FF00" stop-opacity="0.10"/>
    </linearGradient>
  </defs>
  <rect width="1290" height="2796" fill="#0A0A0A"/>
  <rect x="60" y="120" width="1170" height="2556" rx="120" fill="rgba(255,255,255,0.04)" stroke="rgba(255,255,255,0.14)"/>
  <rect x="120" y="240" width="1050" height="2316" rx="96" fill="url(#bg)"/>
  <g fill="#fff" font-family="ui-sans-serif, system-ui, -apple-system, Segoe UI, Roboto, Helvetica, Arial" letter-spacing="-0.02em">
    <text x="210" y="520" font-size="86" font-weight="700">Progress</text>
    <text x="210" y="620" font-size="44" opacity="0.78">Weekly trend and totals.</text>
    <rect x="210" y="740" width="870" height="420" rx="56" fill="rgba(0,0,0,0.35)" stroke="rgba(255,255,255,0.18)"/>
    <text x="260" y="820" font-size="40" opacity="0.72">This week</text>
    <path d="M260 1040 C 380 920, 520 1080, 640 980 S 900 920, 1030 860" stroke="#D0FF00" stroke-width="10" fill="none" stroke-linecap="round"/>
    <circle cx="1030" cy="860" r="10" fill="#D0FF00"/>
    <rect x="210" y="1220" width="420" height="240" rx="56" fill="rgba(0,0,0,0.35)" stroke="rgba(255,255,255,0.18)"/>
    <text x="260" y="1310" font-size="36" opacity="0.72">Pouches avoided</text>
    <text x="260" y="1405" font-size="64" font-weight="700">48</text>
    <rect x="660" y="1220" width="420" height="240" rx="56" fill="rgba(0,0,0,0.35)" stroke="rgba(255,255,255,0.18)"/>
    <text x="710" y="1310" font-size="36" opacity="0.72">Money saved*</text>
    <text x="710" y="1405" font-size="64" font-weight="700">$12</text>
    <text x="210" y="1540" font-size="28" opacity="0.60">*If you add a price per can.</text>
  </g>
</svg>

