<svg width="48" height="48" viewBox="0 0 48 48" fill="none" xmlns="http://www.w3.org/2000/svg">
<g clip-path="url(#clip0_45_6)">
<rect width="48" height="48" rx="8" fill="#151718"/>
<g clip-path="url(#clip1_45_6)">
<path d="M39.4301 16.048C39.1905 15.9097 38.9058 15.8722 38.6386 15.9438C38.3715 16.0154 38.1437 16.1902 38.0053 16.4298L36.9624 18.2363L33.3494 16.1503L34.3924 14.3439C34.5307 14.1043 34.5682 13.8196 34.4966 13.5524C34.425 13.2852 34.2502 13.0574 34.0106 12.9191C33.7711 12.7808 33.4864 12.7433 33.2192 12.8149C32.952 12.8865 32.7242 13.0613 32.5859 13.3009L31.543 15.1074L27.93 13.0214L28.973 11.2149C29.1113 10.9754 29.1488 10.6907 29.0772 10.4235C29.0056 10.1563 28.8308 9.92853 28.5912 9.79022C28.3517 9.65192 28.067 9.61444 27.7998 9.68603C27.5326 9.75762 27.3048 9.93242 27.1665 10.172L26.1235 11.9785L22.5106 9.89251L23.5535 8.08604C23.6919 7.84648 23.7293 7.5618 23.6577 7.29461C23.5861 7.02743 23.4113 6.79962 23.1718 6.66132C22.9322 6.52301 22.6476 6.48553 22.3804 6.55712C22.1132 6.62872 21.8854 6.80352 21.7471 7.04307L8.18848 30.5272C8.05017 30.7668 8.01269 31.0515 8.08428 31.3187C8.15588 31.5859 8.33068 31.8137 8.57023 31.952C8.80978 32.0903 9.09447 32.1277 9.36165 32.0562C9.62884 31.9846 9.85665 31.8098 9.99495 31.5702L11.0379 29.7637L14.6509 31.8497L13.6079 33.6561C13.4696 33.8957 13.4321 34.1804 13.5037 34.4476C13.5753 34.7148 13.7501 34.9426 13.9897 35.0809C14.2292 35.2192 14.5139 35.2567 14.7811 35.1851C15.0483 35.1135 15.2761 34.9387 15.4144 34.6991L16.4573 32.8926L20.0703 34.9786L19.0273 36.7851C18.889 37.0246 18.8515 37.3093 18.9231 37.5765C18.9947 37.8437 19.1695 38.0715 19.4091 38.2098C19.6486 38.3481 19.9333 38.3856 20.2005 38.314C20.4677 38.2424 20.6955 38.0676 20.8338 37.828L21.8768 36.0215L25.4897 38.1075L24.4468 39.914C24.3084 40.1535 24.271 40.4382 24.3426 40.7054C24.4141 40.9726 24.5889 41.2004 24.8285 41.3387C25.0681 41.477 25.3527 41.5145 25.6199 41.4429C25.8871 41.3713 26.1149 41.1965 26.2532 40.9569L39.8118 17.4728C39.9501 17.2332 39.9876 16.9485 39.916 16.6813C39.8444 16.4141 39.6696 16.1863 39.4301 16.048ZM21.4676 11.699L35.9194 20.0427L26.5327 36.301L12.0809 27.9573L21.4676 11.699Z" fill="#C2FF00"/>
</g>
</g>
<defs>
<clipPath id="clip0_45_6">
<rect width="48" height="48" rx="8" fill="white"/>
</clipPath>
<clipPath id="clip1_45_6">
<rect width="33.375" height="33.375" fill="white" transform="translate(17.8921 1.20447) rotate(30)"/>
</clipPath>
</defs>
</svg>
